<?xml version="1.0" encoding="utf-8"?>
<!-- Generator: Adobe Illustrator 16.0.0, SVG Export Plug-In . SVG Version: 6.00 Build 0)  -->
<!DOCTYPE svg PUBLIC "-//W3C//DTD SVG 1.1//EN" "http://www.w3.org/Graphics/SVG/1.1/DTD/svg11.dtd">
<svg version="1.1" id="Layer_1" xmlns="http://www.w3.org/2000/svg" xmlns:xlink="http://www.w3.org/1999/xlink" x="0px" y="0px"
	 width="150px" height="52.152px" viewBox="-66 -84.842 150 52.152" enable-background="new -66 -84.842 150 52.152"
	 xml:space="preserve">
<g>
	<path fill="#FFFFFF" d="M13.629-43.299v0.528v0.507h0.501h5.189h0.495v-0.507v-0.528v-0.927v-1.271v-23.778v-0.507h-0.495h-5.168
		H13.65v0.507v23.778v1.271v0.927H13.629z M41.239-50.799c0-0.323,0-0.647-0.022-0.992l-0.054-0.484l0,0l-0.021-0.173
		c-0.054-0.355-0.097-0.706-0.204-1.056c-0.065-0.351-0.173-0.674-0.302-0.976c-0.151-0.426-0.324-0.803-0.55-1.18
		c-0.205-0.378-0.442-0.728-0.723-1.078c-0.28-0.328-0.56-0.651-0.884-0.927c-0.323-0.302-0.668-0.555-1.056-0.803
		c-0.366-0.253-0.776-0.479-1.207-0.679c-0.42-0.199-0.862-0.398-1.347-0.55l-0.076-0.026l0,0h-0.021l-2.78-0.927
		c-0.237-0.076-0.431-0.151-0.625-0.254c-0.215-0.075-0.388-0.172-0.539-0.274c-0.15-0.075-0.269-0.178-0.398-0.275
		c-0.118-0.102-0.227-0.204-0.323-0.302c-0.377-0.452-0.485-0.98-0.398-1.503c0.021-0.28,0.129-0.528,0.248-0.754l0,0
		c0.118-0.227,0.302-0.453,0.527-0.625c0.453-0.378,1.1-0.604,1.832-0.502l0,0c0.065,0,0.151,0.021,0.216,0.049
		c0.086,0.027,0.151,0.049,0.237,0.049l0.15,0.054l0,0c0.248,0.097,0.475,0.221,0.646,0.372l0,0c0.194,0.15,0.346,0.35,0.475,0.555
		c0.15,0.248,0.28,0.55,0.355,0.852c0.075,0.323,0.119,0.7,0.119,1.077v0.501h0.506h0.453h3.502h0.938h0.507v-0.501v-0.927v-0.754
		v-0.021l0,0v-0.055l0,0l0,0c-0.032-0.274-0.064-0.527-0.108-0.775l0,0c-0.043-0.253-0.097-0.501-0.172-0.755l0,0
		c-0.075-0.247-0.151-0.501-0.259-0.727c-0.097-0.248-0.216-0.475-0.345-0.701c-0.129-0.226-0.259-0.452-0.409-0.679
		c-0.151-0.221-0.291-0.426-0.475-0.625c-0.173-0.199-0.345-0.404-0.539-0.576c-0.215-0.2-0.409-0.378-0.636-0.55
		c-0.227-0.178-0.452-0.355-0.657-0.479c-0.216-0.151-0.452-0.275-0.668-0.426c-0.227-0.124-0.453-0.253-0.711-0.351
		c-0.216-0.103-0.475-0.199-0.69-0.274l0,0l-0.538-0.178v0.026l-0.194-0.054c-0.13-0.021-0.259-0.048-0.345-0.075l0,0
		c-0.13-0.021-0.259-0.049-0.355-0.049c-0.248-0.026-0.507-0.048-0.755-0.075c-0.248,0-0.507,0-0.775,0l-0.485,0.027l0,0
		l-0.173,0.021c-0.172,0.026-0.345,0.054-0.495,0.075c-0.173,0.027-0.323,0.054-0.507,0.103c-0.27,0.048-0.528,0.124-0.808,0.226
		c-0.27,0.076-0.518,0.179-0.776,0.302c-0.237,0.098-0.496,0.227-0.722,0.351l0,0c-0.248,0.124-0.475,0.275-0.701,0.426
		c-0.226,0.151-0.452,0.329-0.646,0.501c-0.237,0.178-0.431,0.377-0.625,0.577c-0.216,0.199-0.409,0.425-0.582,0.63
		c-0.172,0.221-0.355,0.447-0.506,0.674l0,0c-0.151,0.227-0.291,0.452-0.421,0.706l0,0c-0.129,0.247-0.259,0.501-0.355,0.749l0,0
		c-0.097,0.253-0.184,0.501-0.248,0.781c-0.075,0.274-0.129,0.549-0.172,0.824c-0.055,0.274-0.087,0.555-0.087,0.83
		c-0.021,0.274-0.021,0.576,0,0.851c0.032,0.475,0.087,0.927,0.151,1.353c0.086,0.426,0.172,0.857,0.302,1.256
		c0.129,0.351,0.259,0.679,0.409,1.002c0.151,0.302,0.323,0.631,0.518,0.905l0.054,0.075l0,0l0.151,0.199
		c0.247,0.323,0.527,0.625,0.829,0.905c0.302,0.275,0.625,0.55,0.97,0.776c0.237,0.15,0.485,0.302,0.733,0.426
		c0.259,0.124,0.495,0.253,0.775,0.35l0.259,0.103v0.021l0.668,0.227l2.932,0.933l0.237,0.069l0,0
		c0.193,0.075,0.366,0.151,0.55,0.227c0.172,0.075,0.323,0.178,0.506,0.253l0,0c0.173,0.098,0.323,0.199,0.453,0.323l0,0
		c0.118,0.13,0.237,0.222,0.345,0.372c0.302,0.388,0.496,0.809,0.582,1.229l0,0c0.086,0.507,0.043,1.013-0.13,1.509l0,0
		c-0.172,0.475-0.474,0.927-0.884,1.25c-0.345,0.302-0.797,0.507-1.325,0.604l0,0c-0.183,0.032-0.355,0.054-0.507,0.054l0,0
		c-0.948,0.032-1.745-0.377-2.37-1.002c-0.604-0.625-1.035-1.509-1.207-2.436l0,0c-0.054-0.248-0.087-0.496-0.087-0.776l0,0v-0.097
		l0,0v-0.506h-0.495h-0.453h-3.459h-0.927h-0.507v0.506v0.895c0,0.302,0,0.604,0.021,0.905c0.033,0.302,0.087,0.604,0.13,0.905
		c0.054,0.302,0.129,0.582,0.205,0.884c0.075,0.216,0.15,0.474,0.226,0.7l0,0l0.043,0.119c0.108,0.28,0.237,0.56,0.356,0.808
		c0.129,0.248,0.269,0.507,0.42,0.744l0,0c0.15,0.259,0.334,0.517,0.518,0.732c0.172,0.259,0.366,0.475,0.571,0.711
		c0.226,0.216,0.42,0.453,0.657,0.647c0.193,0.172,0.388,0.345,0.625,0.527l0,0l0.064,0.054c0.237,0.173,0.474,0.346,0.732,0.496
		c0.248,0.151,0.496,0.302,0.755,0.431l0.097,0.044c0.227,0.107,0.485,0.204,0.7,0.302c0.28,0.107,0.561,0.172,0.862,0.258l0,0
		c0.27,0.065,0.571,0.119,0.873,0.173c0.291,0.043,0.593,0.064,0.895,0.097h0.032l0,0l0,0c0.323,0.032,0.657,0.032,0.98,0l0,0
		c0.302,0,0.625-0.054,0.948-0.075l0,0c0.302-0.043,0.625-0.107,0.927-0.172c0.302-0.087,0.626-0.173,0.927-0.302
		c0.302-0.108,0.604-0.227,0.884-0.378c0.302-0.15,0.582-0.302,0.852-0.484c0.27-0.173,0.55-0.366,0.809-0.571
		c0.27-0.205,0.518-0.421,0.775-0.679c0.248-0.248,0.496-0.496,0.723-0.755c0.226-0.248,0.42-0.495,0.625-0.775
		c0.204-0.28,0.377-0.571,0.55-0.873l0.107-0.205l0.021,0.021l0.259-0.604c0.118-0.291,0.216-0.593,0.302-0.895
		c0.064-0.302,0.14-0.625,0.193-0.927C41.217-50.174,41.239-50.497,41.239-50.799L41.239-50.799z M7.131-42.415
		c0.728,0.097,1.53,0.151,2.382,0.151h0.932h0.501v-0.507v-0.927v-2.759v-0.927v-0.507h-0.501H9.513c-0.399,0-0.75-0.021-1.1-0.064
		c-0.355-0.054-0.652-0.107-0.954-0.205l-0.15-0.054l0,0c-0.199-0.075-0.404-0.15-0.577-0.248l0,0
		c-0.226-0.118-0.426-0.27-0.576-0.42c-0.178-0.151-0.302-0.366-0.426-0.561c-0.129-0.194-0.227-0.431-0.302-0.7
		s-0.15-0.55-0.199-0.873c-0.054-0.323-0.075-0.657-0.075-1.035v-11.558v-0.204h0.199h4.16h0.932h0.501v-0.501v-0.9v-3.136v-0.927
		v-0.507h-0.501H9.513H7.082H5.353H5.153v-0.199v-5.593h-6.197v24.106c0,0.755,0.049,1.444,0.173,2.134
		c0.129,0.646,0.302,1.272,0.528,1.854c0.226,0.571,0.527,1.121,0.878,1.596c0.351,0.506,0.755,0.927,1.229,1.336l0.075,0.075l0,0
		c0.426,0.355,0.905,0.68,1.428,0.959l0,0c0.556,0.302,1.159,0.518,1.811,0.723C5.702-42.642,6.403-42.522,7.131-42.415
		L7.131-42.415z M54.332-81.216c-0.851,0-1.627,0.048-2.381,0.15c-0.733,0.098-1.423,0.227-2.08,0.426s-1.261,0.426-1.811,0.728l0,0
		c-0.528,0.274-1.002,0.576-1.434,0.954l0,0l-0.064,0.075c-0.475,0.398-0.884,0.852-1.229,1.331c-0.355,0.474-0.657,1.023-0.884,1.6
		l0,0c-0.227,0.577-0.398,1.181-0.528,1.859c-0.118,0.652-0.172,1.38-0.172,2.134v29.717h6.196v-21.344v-0.199h0.194h1.734h2.457
		h0.905h0.507v-0.501v-0.905v-3.136v-0.948v-0.507h-0.507h-0.905h-4.17h-0.194v-0.199v-1.455c0-0.377,0.021-0.728,0.075-1.029
		c0.055-0.323,0.119-0.625,0.205-0.872c0.064-0.254,0.173-0.48,0.302-0.68s0.27-0.403,0.42-0.555
		c0.184-0.146,0.356-0.296,0.571-0.426l0,0c0.13-0.075,0.28-0.124,0.432-0.199l0,0l0.323-0.103c0.28-0.075,0.604-0.15,0.959-0.199
		l0,0c0.355-0.049,0.722-0.075,1.109-0.075h0.895h0.507v-0.501v-0.9v-2.759v-0.932v-0.502h-0.507h-0.927V-81.216z M-47.265-50.799
		c0-0.323,0-0.647-0.027-0.992l-0.026-0.484l0,0l-0.021-0.173c-0.054-0.355-0.103-0.706-0.205-1.056
		c-0.075-0.351-0.172-0.674-0.302-0.976c-0.146-0.426-0.323-0.803-0.55-1.18c-0.199-0.378-0.452-0.728-0.728-1.078
		c-0.274-0.328-0.549-0.651-0.878-0.927c-0.323-0.302-0.679-0.555-1.051-0.803c-0.377-0.253-0.781-0.479-1.207-0.679
		s-0.878-0.398-1.353-0.55l-0.075-0.026l0,0h-0.027l-2.78-0.927c-0.226-0.076-0.426-0.151-0.63-0.254
		c-0.199-0.075-0.377-0.172-0.522-0.274c-0.151-0.075-0.28-0.178-0.404-0.275c-0.124-0.102-0.227-0.204-0.323-0.302l0,0
		c-0.378-0.452-0.507-0.98-0.404-1.503c0.049-0.28,0.124-0.528,0.253-0.754l0,0c0.124-0.227,0.302-0.453,0.522-0.625
		c0.453-0.378,1.105-0.604,1.832-0.502l0,0c0.076,0,0.151,0.021,0.227,0.049s0.151,0.049,0.227,0.049l0.15,0.054h0.027
		c0.248,0.097,0.475,0.221,0.652,0.372l0,0c0.199,0.15,0.35,0.35,0.474,0.555c0.151,0.248,0.275,0.55,0.351,0.852
		c0.075,0.323,0.124,0.7,0.124,1.077v0.501h0.501h0.452h3.514h0.927h0.501v-0.501v-0.927v-0.754v-0.021l0,0v-0.055l0,0l0,0
		c-0.021-0.274-0.049-0.527-0.097-0.775l0,0c-0.054-0.253-0.103-0.501-0.178-0.755l0,0c-0.076-0.247-0.151-0.501-0.248-0.727
		c-0.103-0.248-0.227-0.475-0.355-0.701c-0.124-0.226-0.248-0.452-0.399-0.679c-0.15-0.221-0.302-0.426-0.479-0.625
		c-0.172-0.199-0.35-0.404-0.55-0.576c-0.199-0.2-0.398-0.378-0.625-0.55c-0.226-0.178-0.452-0.355-0.651-0.479
		c-0.227-0.151-0.453-0.275-0.679-0.426c-0.227-0.124-0.453-0.253-0.701-0.351c-0.226-0.103-0.479-0.199-0.706-0.274l-0.549-0.178
		v0.026l-0.199-0.054c-0.13-0.021-0.254-0.048-0.356-0.075l0,0c-0.124-0.021-0.247-0.049-0.371-0.049
		c-0.254-0.026-0.502-0.048-0.755-0.075c-0.253,0-0.501,0-0.775,0l-0.479,0.027l0,0l-0.173,0.021
		c-0.178,0.026-0.351,0.054-0.501,0.075c-0.178,0.027-0.329,0.054-0.501,0.103c-0.28,0.048-0.528,0.124-0.803,0.226
		c-0.254,0.076-0.528,0.179-0.781,0.302c-0.248,0.098-0.502,0.227-0.728,0.351l0,0c-0.248,0.124-0.475,0.275-0.701,0.426
		c-0.226,0.151-0.452,0.329-0.651,0.501c-0.227,0.178-0.426,0.377-0.625,0.577c-0.205,0.199-0.404,0.425-0.604,0.651
		c-0.178,0.227-0.351,0.453-0.501,0.679l0,0c-0.151,0.227-0.302,0.453-0.426,0.701l0,0c-0.13,0.253-0.254,0.501-0.351,0.754l0,0
		c-0.103,0.248-0.178,0.501-0.253,0.776c-0.076,0.274-0.124,0.555-0.178,0.829l0,0c-0.049,0.275-0.076,0.55-0.098,0.825
		c-0.026,0.28-0.026,0.576,0,0.856c0.021,0.474,0.076,0.927,0.151,1.353s0.172,0.852,0.323,1.255l0,0
		c0.124,0.351,0.253,0.674,0.404,1.003c0.15,0.302,0.323,0.625,0.522,0.899l0.054,0.075l0,0l0.151,0.205
		c0.247,0.323,0.522,0.625,0.824,0.899c0.302,0.275,0.63,0.556,0.98,0.776c0.227,0.15,0.475,0.302,0.728,0.431
		c0.248,0.124,0.501,0.248,0.775,0.351l0.254,0.097l-0.027,0.027l0.679,0.227l2.932,0.927l0.227,0.075l0,0
		c0.199,0.075,0.377,0.15,0.555,0.227c0.173,0.075,0.323,0.178,0.501,0.253l0,0c0.173,0.097,0.323,0.199,0.447,0.323l0,0
		c0.13,0.124,0.253,0.227,0.377,0.377c0.302,0.377,0.501,0.809,0.577,1.229l0,0c0.103,0.507,0.054,1.002-0.124,1.498l0,0
		c-0.178,0.485-0.475,0.927-0.879,1.261c-0.35,0.302-0.803,0.507-1.33,0.604l0,0c-0.173,0.021-0.351,0.054-0.502,0.054l0,0
		c-0.953,0.021-1.751-0.388-2.381-1.013c-0.604-0.625-1.029-1.509-1.202-2.436l0,0c-0.054-0.237-0.075-0.496-0.075-0.775l0,0v-0.098
		l0,0v-0.506h-0.501h-0.453h-3.486h-0.927H-66v0.506v0.905c0,0.302,0.021,0.604,0.049,0.895c0.026,0.302,0.075,0.604,0.124,0.905
		c0.048,0.302,0.124,0.582,0.199,0.884c0.075,0.227,0.15,0.475,0.227,0.7l0,0l0.054,0.13c0.097,0.27,0.227,0.55,0.351,0.808
		c0.123,0.237,0.274,0.496,0.425,0.744c0.151,0.248,0.323,0.506,0.502,0.722c0.178,0.259,0.377,0.485,0.576,0.711
		c0.199,0.216,0.426,0.453,0.652,0.647c0.199,0.172,0.403,0.355,0.625,0.527l0,0l0.054,0.055c0.227,0.172,0.474,0.345,0.728,0.495
		c0.248,0.151,0.501,0.302,0.749,0.432l0.129,0.043c0.221,0.107,0.447,0.204,0.674,0.28c0.28,0.107,0.555,0.172,0.856,0.258l0,0
		c0.274,0.065,0.576,0.119,0.873,0.173c0.302,0.043,0.604,0.064,0.905,0.097h0.026l0,0h0.022c0.328,0.032,0.651,0.032,0.98,0l0,0
		c0.323,0,0.625-0.054,0.953-0.075l0,0c0.302-0.043,0.625-0.107,0.927-0.172c0.302-0.087,0.625-0.173,0.927-0.302
		c0.302-0.108,0.604-0.227,0.879-0.378c0.274-0.15,0.576-0.302,0.852-0.484c0.28-0.173,0.555-0.366,0.803-0.571
		c0.274-0.205,0.527-0.421,0.781-0.679c0.248-0.248,0.501-0.496,0.728-0.755c0.221-0.248,0.426-0.495,0.598-0.775
		c0.205-0.28,0.377-0.571,0.555-0.873l0.124-0.205l0.027,0.021l0.248-0.604c0.124-0.291,0.227-0.593,0.302-0.895l0,0
		c0.075-0.302,0.15-0.625,0.199-0.927C-47.318-50.174-47.292-50.497-47.265-50.799L-47.265-50.799z M-36.887-42.415
		c0.732,0.097,1.53,0.151,2.387,0.151h0.927h0.502v-0.507v-0.927v-2.759v-0.927v-0.507h-0.502H-34.5
		c-0.403,0-0.754-0.021-1.104-0.064c-0.35-0.054-0.651-0.107-0.953-0.205l-0.151-0.054l0,0c-0.199-0.075-0.398-0.15-0.576-0.248l0,0
		c-0.227-0.118-0.426-0.27-0.577-0.42c-0.178-0.151-0.302-0.366-0.426-0.561c-0.123-0.194-0.226-0.431-0.302-0.668l0,0
		c-0.102-0.28-0.15-0.582-0.199-0.884c-0.054-0.323-0.075-0.679-0.075-1.034v-11.559v-0.199h0.199h4.165h0.927h0.502v-0.501v-0.905
		v-3.136v-0.948v-0.507h-0.502H-34.5h-2.436h-1.729h-0.199v-0.199v-5.593h-6.196v24.106c0,0.755,0.048,1.444,0.178,2.134
		c0.124,0.646,0.302,1.272,0.522,1.854c0.227,0.571,0.528,1.121,0.878,1.596c0.356,0.506,0.755,0.927,1.229,1.336l0.076,0.075l0,0
		c0.431,0.355,0.905,0.68,1.433,0.959l0,0c0.55,0.302,1.153,0.518,1.806,0.723C-38.314-42.642-37.608-42.522-36.887-42.415
		L-36.887-42.415z M-14.94-71.032c-0.927-0.205-1.88-0.302-2.855-0.302c-1.935,0-3.788,0.377-5.469,1.078
		c-1.757,0.728-3.336,1.777-4.64,3.108c-1.331,1.331-2.382,2.883-3.109,4.64c-0.706,1.682-1.077,3.54-1.077,5.469
		s0.371,3.788,1.077,5.464c0.728,1.768,1.778,3.341,3.109,4.645l0,0c1.331,1.326,2.883,2.382,4.64,3.114l0,0
		c1.681,0.69,3.534,1.078,5.469,1.078c0.652,0,1.304-0.054,1.929-0.129c0.652-0.076,1.277-0.227,1.908-0.378
		c0.576-0.15,1.126-0.355,1.681-0.571c0.55-0.236,1.078-0.506,1.601-0.775l0.075-0.064l0.075,0.032l6.17,1.627l0.83,0.227
		l-0.227-0.83l-1.627-6.164l-0.027-0.075l0.049-0.076c0.302-0.495,0.555-1.056,0.781-1.605c0.221-0.55,0.426-1.109,0.576-1.681
		c0.173-0.604,0.297-1.256,0.398-1.881c0.076-0.625,0.124-1.277,0.124-1.929c0-0.556-0.021-1.078-0.097-1.605
		c-0.054-0.528-0.15-1.057-0.274-1.584c-0.13-0.523-0.28-1.024-0.432-1.525c-0.172-0.501-0.371-1.008-0.598-1.481l0,0l-0.351-0.728
		l-0.506,0.625l-3.584,4.439l-0.15,0.178l0.048,0.227l0,0c0.027,0.098,0.055,0.227,0.055,0.351l0,0l0.021,0.172l0,0l0.026,0.205
		c0,0.097,0.021,0.221,0.021,0.372c0,0.129,0,0.253,0,0.377c0,1.153-0.221,2.258-0.646,3.238c-0.431,1.034-1.056,1.982-1.858,2.759
		c-0.776,0.775-1.703,1.401-2.759,1.832c-1.003,0.431-2.107,0.646-3.233,0.646c-1.158,0-2.258-0.216-3.238-0.646
		c-1.029-0.431-1.983-1.057-2.759-1.832c-0.776-0.776-1.401-1.703-1.854-2.759c-0.426-1.008-0.652-2.106-0.652-3.238
		c0-1.153,0.227-2.23,0.652-3.233c0.426-1.028,1.051-1.982,1.854-2.759c0.775-0.775,1.708-1.406,2.759-1.832
		c1.002-0.425,2.106-0.651,3.238-0.651c0.55,0,1.078,0.048,1.601,0.15l0,0c0.528,0.103,1.029,0.254,1.509,0.426l0,0l0.048,0.027
		c0.502,0.199,0.981,0.447,1.429,0.728c0.452,0.302,0.878,0.625,1.282,1.002l0.323,0.302l0.35-0.274l3.767-3.039l0.426-0.351
		l-0.377-0.398c-0.679-0.706-1.406-1.331-2.209-1.881c-0.776-0.555-1.628-1.008-2.506-1.406
		C-13.081-70.531-13.986-70.833-14.94-71.032L-14.94-71.032z M-4.982-66.441l-12.813,15.793l-6.17-8.949l6.067,3.438l0.124,0.075
		l0.103-0.075L-4.982-66.441L-4.982-66.441z M70.056-36.574l13.428-31.979l0,0l0.064-0.172l0.151-0.351L84-69.782h-0.775H77.75
		h-0.323l-0.118,0.302l0,0l-6.779,15.955l-0.193,0.447l-0.173-0.475L63.74-69.502l-0.129-0.328h-0.345h-5.626h-0.754l0.28,0.705l0,0
		l0.129,0.323l0.021,0.027l0,0l9.333,23.644l0.021,0.086l-0.021,0.065l-3.137,7.953l0,0l-0.279,0.711h0.754h5.593h0.323
		L70.056-36.574L70.056-36.574z M19.319-78.506h-5.168H13.65v0.501v5.168v0.501h0.501h5.168h0.495v-0.501v-5.168v-0.501H19.319z"/>
</g>
</svg>
