<?xml version="1.0" standalone="no"?>
<!DOCTYPE svg PUBLIC "-//W3C//DTD SVG 1.1//EN" "http://www.w3.org/Graphics/SVG/1.1/DTD/svg11.dtd">
<svg xmlns="http://www.w3.org/2000/svg">
<metadata>Generated by Fontastic.me</metadata>
<defs>
<font id="untitled-font-4" horiz-adv-x="512">
<font-face font-family="untitled-font-4" units-per-em="512" ascent="480" descent="-32"/>
<missing-glyph horiz-adv-x="512" />

<glyph unicode="&#97;" d="M262 298c-12 3-19 0-22-13-10-32-32-45-64-48-13 0-22 0-35 0-35 6-51 22-61 61 0 12-3 22-3 38 121 0 240 0 358 0 3-48-22-86-64-96-54-13-86 6-109 58z m-16-192c48 12 87 35 93 86 13 0 26 0 35 0 7-42-51-90-128-86z m256 137c0 3 0 7 0 13 0 6 0 6 0 13 0 3 0 3 0 6 0 0 0 3 0 3-12 125-118 224-246 224-138 0-246-108-246-246 0-138 112-246 246-246 128 0 234 99 246 227 0 3 0 3 0 6z m-41 13c0-112-93-205-205-205-112 0-202 90-205 205 0 112 90 205 205 205 115 0 205-93 205-205z"/>
<glyph unicode="&#98;" d="M173 10c35 163 70 326 105 492 13 0 26 0 42 0-35-166-70-329-106-492-12 0-25 0-41 0z m-51 323c-20 0-36 0-52 0 0 16 0 29 0 41 0 4 7 10 13 10 13 10 26 13 35 26 7 6 13 22 7 32-3 9-16 16-29 19-10 3-22 0-32-3-10-4-16-10-26-13-3 3-3 3-3 3-3 42-3 42 39 51 25 7 51 3 76-6 23-10 32-26 32-48 0-26-9-45-28-61-4-3-7-3-10-6-16-4-26-16-22-32 0-4 0-7 0-13z m297-266c-19 0-35 0-54 0 0 16 0 29 0 45 0 3 6 6 13 10 12 9 25 16 38 25 6 7 10 23 6 32-6 7-22 13-32 13-22 0-41-6-64-10 0 42 0 42 39 52 25 6 51 3 77-7 22-9 35-25 35-51 0-26-10-48-32-61-23-9-35-19-26-48z m-352 247c19 0 39 0 58 0 0-13 0-23 0-36-19 0-39 0-58 0 0 10 0 20 0 36z m352-269c0-13 0-26 0-35-19 0-38 0-57 0 0 12 0 22 0 35 19 0 38 0 57 0z"/>
<glyph unicode="&#99;" d="M355 278l0 68 93 41 0-137z m0 157c0 42-32 74-73 74-42 0-74-32-74-74 0-35 29-67 64-70l-125 0c35 6 64 35 64 70 0 42-32 74-73 74-42 0-74-35-74-74 0-35 29-67 64-70l-45 0 0-147 103 0 12-26-64-147 16 0 20 48 41 0 0-83 13 0 0 86 45 0 19-54 16 0-64 150 13 26 86 0 0 144-48 0c35 6 64 35 64 73z m-147-333l-38 0 38 77z m58 0l-39 0-3 84z"/>
<glyph unicode="&#100;" d="M144 355c0 19 0 39 3 58 10 57 58 96 119 93 54-4 99-48 102-106 0-16 0-29 0-45 10-3 22-6 32-13 48-22 74-92 51-144-9-22-22-44-38-60-42-52-93-90-147-125-4-3-13-3-16 0-61 38-119 83-164 141-25 32-41 67-32 108 13 48 39 80 90 93z m109-57c16 19 32 32 51 41 10 7 26 13 26 13 0 0 0 42 0 45-4 35-32 64-68 67-35 6-70-16-76-54-4-20-4-39-4-55 39-19 39-19 71-57z m-26-180c19 0 35 0 55 0-7 23-16 42-23 61 23 16 29 32 16 48-6 10-25 13-35 0-16-13-13-25 10-51-7-19-13-38-23-58z"/>
<glyph unicode="&#101;" d="M494 339l8 0 0 13-26 0c-13 1-16 11-18 30-137 0-272 0-408 0-2-20-4-26-16-31l-27 0 0-12 8 0c2 0 5-3 5-5 0-3-3-5-5-5l-8 0 0-9 8 0c2 0 5-3 5-5 0-3-3-5-5-5l-8 0 0-9 8 0c2 0 5-3 5-5 0-3-3-5-5-5l-8 0 0-10 8 0c2 0 5-3 5-5 0-3-3-5-5-5l-8 0 0-9 8 0c2 0 5-3 5-5 0-3-3-5-5-5l-8 0 0-9 8 0c2 0 5-3 5-5 0-3-3-5-5-5l-8 0 0-9 8 0c2 0 5-3 5-5 0-3-3-5-5-5l-8 0 0-9 8 0c2 0 5-3 5-5 0-3-3-5-5-5l-8 0 0-9 8 0c2 0 5-3 5-5 0-3-3-5-5-5l-8 0 0-13 25 0c13-4 16-11 19-33 136 0 272 0 407 0 3 22 4 27 19 33l25 0 0 13-8 0c-3 0-5 2-5 5 0 2 2 5 5 5l8 0 0 9-8 0c-3 0-5 2-5 5 0 2 2 5 5 5l8 0 0 9-8 0c-3 0-5 2-5 5 0 2 2 5 5 5l8 0 0 9-8 0c-3 0-5 2-5 5 0 2 2 5 5 5l8 0 0 9-8 0c-3 0-5 2-5 5 0 2 2 5 5 5l8 0 0 9-8 0c-3 0-5 2-5 5 0 2 2 5 5 5l8 0 0 9-8 0c-3 0-5 2-5 5 0 2 2 5 5 5l8 0 0 9-8 0c-3 0-5 2-5 5 0 2 2 5 5 5l8 0 0 9-8 0c-3 0-5 2-5 5 0 3 2 6 5 6z m-46-145c0-21-8-29-29-29-55 0-109 0-164 0-54 0-108 0-162 0-24 0-31 8-31 32 0 40 0 80 0 120 0 23 8 31 30 31 109 0 218 0 327 0 22 0 29-8 30-30-1-41-1-83-1-124z m-12 121c0 15-6 20-20 20-107 0-215 0-323 0-15 0-20-6-20-21 1-39 0-77 0-116 0-19 4-22 23-22 53 0 105 0 158 0 53 0 108 0 161 0 14 0 22 5 21 21-1 39-1 79 0 118z m-286-36l-20 0 0-55-12 0 0 55-19 0 0 10 52 0 0-10z m19-55l-11 0 0 65 11 0z m66 14c-2-3-4-6-6-8-3-3-5-5-9-6-3-2-6-2-10-2-5 0-9 1-13 3-5 1-7 4-10 7-3 3-5 7-6 11-2 4-3 8-3 13 0 5 1 9 3 13 2 4 3 8 6 11 2 3 5 6 10 7 4 2 8 3 13 3 3 0 6-1 10-2 3-1 5-2 8-4 2-2 4-4 6-7 1-2 2-5 2-9l-11 0c-1 2-1 4-2 5-1 2-2 4-3 4-2 1-3 2-5 3 0 1-3 1-5 1-4 0-7-1-9-3-3-1-4-3-6-5-2-3-3-5-3-9-1-3-1-6-1-9 0-3 0-6 1-9 0-3 1-6 3-8 2-3 3-4 6-6 2-2 5-2 9-2 2 0 5 0 6 1 2 1 4 3 5 4 2 1 3 3 4 5 0 2 1 4 1 7l11 0c0-3-1-6-2-9z m54-14l-21 31-9-9 0-22-11 0 0 65 11 0 0-30 28 30 14 0-25-26 27-38-14 0z m66 0l-46 0 0 65 46 0 0-10-35 0 0-17 33 0 0-9-33 0 0-19 35 0z m55 55l-20 0 0-55-12 0 0 55-20 0 0 10 52 0z"/>
<glyph unicode="&#102;" d="M291 506c-6-36-16-74-22-109 0-3-7-3-10-7 0 0-3 0-6 0-16 0-42-6-55 4-12 6-12 35-16 51-3 22-9 41-12 61 41 0 80 0 121 0z m-22-138c13-45 29-90 41-134 13-39 23-74 36-112 0-7 0-16-4-20-35-32-70-64-108-96-39 32-77 64-116 96-3 4-6 10-3 13 26 83 51 167 80 253 23 0 48 0 74 0z m128-189c-32-6-32-6-42 23-16 38-29 76-41 118 22-32 44-61 70-90 13-16 16-32 13-51z"/>
<glyph unicode="&#103;" d="M467 173c0 29-16 51-41 61-4 0-4 0-7 3-3 0-3 0-6 0 0 0-3 0-3 0-4 0-7 0-10 0-3 0-3 0-6 0-4 0-4 0-7 0 0 35-29 64-64 64-35 0-64-29-64-64-38 6-73-26-73-64 0-16 6-29 16-42-36-16-74-32-100-67-35 86-28 166 20 243l-23 19c0 0 0-3 0-3-32-48-54-99-54-157-3-54 13-105 41-156 13 12 29 19 42 32 26 28 58 51 96 70-6-10-10-22-10-35 0-35 29-64 64-64 20 0 36 6 48 22 13-13 29-22 48-22 36 0 64 29 64 64 0 13-3 22-9 32 0 3 0 3 0 6 22 7 38 29 38 58z m-67-42l-32-3 26-19c9-7 16-19 16-32 0-23-20-39-39-39-16 0-29 10-35 23l-10 22-9-19c-7-13-19-22-35-22-23 0-39 19-39 38 0 13 7 22 16 32l23 16-29 3c-19 0-39 19-39 39 0 28 32 48 58 35l22-13-6 26c0 3-3 6-3 9 0 23 19 39 38 39 23 0 39-20 39-39 0-3 0-6-4-13l-3-22 26 13c6 3 13 6 19 6 22 0 38-19 38-38 0-23-16-42-38-42z m-45 29c-3 6-3 13-6 19-13-6-16 7-26 10-3-3-6-10-9-13-7 0-10 0-16 3 0-6 0-16-4-19-16-10-6-13 4-19 0-7 0-13 0-19 6 0 12 3 16 3 3-3 6-10 9-13 7 6 13 13 16 13 19-3 13 6 10 16 3 3 9 6 13 13 0 0-4 3-7 6z m-195 221c6 0 10 0 13 0-3-10-7-19-10-29 3 0 3 0 7 0 3 10 9 16 12 26 4-4 4-4 7-7 0 3 0 7 0 10 9-3 19-7 29-7 0 4 0 4 3 7-10 0-16 6-26 9 3 4 7 4 10 7-7 0-10 0-13 0 3 9 6 19 10 29-4 0-4 3-7 3-3-7-9-16-13-23-3 0-3 4-6 7 0-3 0-7 0-10-13 0-22 3-32 7 0-4-3-4-3-7 9-3 19-9 25-13 0-3-3-6-6-9z m38-115c-6 0-12 0-19 3-16 6-25 19-32 32-13-7-29-7-41 0-26 9-39 38-29 67 3 10 9 16 19 22-16 13-19 36-13 55 10 25 42 41 67 29 4 0 4-4 7-4 13 26 41 39 67 29 13-6 22-16 29-29 6-9 6-25 3-35 3 0 6 0 10-3 25-10 41-42 28-67-6-19-25-32-44-32 3-10 0-19-4-32-9-23-28-35-48-35z m-35 73l0-22c0-13 10-23 19-29 16-6 36 3 42 19 6 10 6 23 0 29l-16 26 29-10c16-6 35 3 41 19 4 16-3 35-22 42-3 3-10 3-16 3l-26-6 16 19c4 3 4 6 7 9 3 10 3 16 0 26-3 6-10 13-19 16-16 6-36 0-42-16 0-3 0-6-3-10l0-22-16 16c-3 3-7 6-13 10-16 6-35-4-42-20-6-16 0-35 16-41l26-13-26-6c-9-4-19-10-22-20-6-16 3-35 19-41 13-3 26-3 35 6z"/>
<glyph unicode="&#104;" d="M387 506c0-20-16-29-32-36-29-9-38-25-41-54 0-13-4-26-7-45 23 0 42 0 61 0 22 0 26-6 26-29-10-105-20-211-29-316 0-10-7-16-10-23-64 0-128 0-192 0-3 10-9 19-9 26-10 105-20 208-29 313-7 26 0 32 22 32 42 0 83 0 128 0 10 0 16 4 19 13 4 23 7 42 13 64 0 7 7 16 13 19 22 13 45 26 64 36 3 0 3 0 3 0z m-121-250c6 35 12 67 22 102-51 0-99 0-147 0 9-112 19-224 32-332 61 0 118 0 176 0 9 112 19 220 32 336-23 0-45 0-64 0-10-4-16-10-16-13-7-29-13-61-19-93 22 0 44 0 67 0-7-74-13-144-19-214-52 0-100 0-148 0-6 70-12 140-19 214 35 0 67 0 103 0z"/>
<glyph unicode="&#105;" d="M496 125c-10-35-32-48-67-32-16 6-29 16-42 25-22 16-41 32-67 45-51 32-106 29-154-9-16-13-32-29-48-42-12-10-28-19-41-26-32-9-55 0-61 36-3 25-6 48-3 73 3 58 19 112 48 157 13 22 32 42 51 58 22 19 48 22 74 9 3 0 6-3 9-3 42-22 80-22 122 0 48 26 77 3 102-19 29-32 48-71 61-109 10-32 16-64 22-96 0-6 4-38-6-67z m-346 109c39 0 68 28 68 67 0 38-29 67-68 67-38 0-67-29-67-67 0-35 29-67 67-67z m202 51c-10 6-16 16-19 16-7 0-13-10-19-13 6-6 9-13 16-16 6 0 12 6 22 13z m26-64c6 9 12 16 12 19 0 6-9 10-12 16-7-6-13-10-13-16-3-3 3-10 13-19z m-4 89c7 10 16 16 16 20 0 6-9 9-12 16-7-7-13-10-13-16-3-4 3-10 9-20z m68-25c-10 6-16 16-20 16-6 0-9-10-16-13 7-6 10-13 16-13 4-3 10 3 20 10z m-292 54c20 0 39-16 39-35 0-19-16-38-39-38-19 0-38 16-35 35 0 22 16 38 35 38z"/>
<glyph unicode="&#106;" d="M256 390c19 32 38 55 70 68 74 25 148-16 170-96 10-39 6-80-16-112-19-29-38-55-67-84-48-44-96-76-147-115-4-3-13-3-20 0-64 42-128 90-182 151-16 19-29 38-42 57-32 61-3 141 36 176 57 48 140 35 185-29 7-3 10-9 13-16z"/>
<glyph unicode="&#107;" d="M224 371c-3 16-16 26-38 29-42 0-80 0-122 0-22 0-35-10-38-26-4-12-4-25-7-38-3-32-9-64-13-96-3-10 4-16 16-16 13 0 23 0 23 13 0 6 3 9 3 16 3 22 10 41 13 64 3-93 3-186 3-279 0-12 6-22 22-25 4 0 7 0 10 0 19 3 22 13 22 25 0 48 0 93 0 141 0 3 7 10 7 13 3-3 6-10 6-13 0-48 0-93 0-141 0-12 3-22 23-25 3 0 6 0 9 0 16 6 23 13 23 25 0 87 0 176 0 263 0 6 0 9 0 16 6-26 12-51 16-77 3-13 9-16 25-16 16 3 19 10 16 19-6 45-13 87-19 128z m282-118c-20 41-39 80-58 121-6 16-22 23-42 23-32 0-70 9-86-19-26-42-45-84-64-128-3-4 3-13 6-16 7-4 16 0 23 3 6 3 6 9 9 13 13 25 26 48 39 70 3-3 3-3 3-6-16-45-32-93-48-141-6-13 0-19 16-23 19-3 22-9 22-25 0-32 0-61 0-93 0-10 4-19 16-22 7 0 10 0 16 0 13 6 16 12 13 22 0 32 0 67-3 99 0 7 0 13 16 10 0-35 0-74 0-109 0-10 0-19 13-22 6 0 9 0 16 0 13 3 16 12 16 22 0 29 3 58 0 90 0 16 6 28 29 32 12 3 16 6 12 16-9 32-22 64-32 92-6 20-12 39-16 58 16-26 32-51 45-77 3-9 13-13 26-9 16 3 16 9 13 19z m-336 201c0-24-20-44-45-44-25 0-45 20-45 44 0 25 20 45 45 45 25 0 45-20 45-45z m256 0c0-24-20-44-45-44-25 0-45 20-45 44 0 25 20 45 45 45 25 0 45-20 45-45z"/>
<glyph unicode="&#108;" d="M186 86c-36 36-71 71-106 106 83 83 170 170 253 253 35-35 70-71 105-106-83-83-166-169-252-253z m150 311c-70-71-138-138-208-208 3-3 6-7 10-10 70 71 137 141 208 208-4 3-7 7-10 10z m26-26c-71-70-138-137-208-208 3 0 6-3 9-6 71 70 138 137 205 208 0 0-3 3-6 6z m-176-237c70 71 137 138 204 205-3 3-6 7-6 7-70-71-138-138-205-205 3-3 7-7 7-7z m-74 375c42-42 86-87 128-131-35-32-70-71-109-106-9 13-19 22-32 38 13 13 29 26 48 42-6 6-9 10-16 16-16-19-29-35-45-51-12 13-25 25-38 38 16 16 32 29 48 45-3 6-10 10-13 16-16-16-29-35-45-51-12 16-25 25-35 38 35 32 71 71 109 106z m157-375c35 36 73 74 109 109 44-45 89-86 131-131-35-35-74-70-109-109-10 10-22 23-35 39 16 12 32 28 48 44-7 7-10 10-13 16-16-16-29-35-45-51-13 16-25 26-38 42 16 13 32 29 51 45-6 6-10 9-16 12-16-19-32-35-45-51-16 13-25 23-38 35z m80 327c9 9 22 22 32 32 16 16 35 16 51 0 19-19 38-39 58-58 16-16 16-32 0-48-10-13-23-25-32-35-36 38-71 74-109 109z m-279-288c36-32 68-67 100-99-26-10-55-20-80-29-13-3-52 38-48 54 6 23 16 45 25 67 0 0 0 4 3 7z m-9-138c-16-6-29-9-48-16 6 19 13 32 19 51 10-16 19-25 29-35z"/>
<glyph unicode="&#109;" d="M50 350l0-153 92 0 0-35-133 0 0 188z m114-56c4 12 9 22 18 31 8 9 17 16 29 22 11 5 24 7 38 7 15 0 28-2 39-7 12-5 22-13 29-22 8-9 14-19 18-31 4-12 7-25 7-39 0-14-3-26-7-38-4-11-10-22-18-31-8-9-17-16-29-21-11-5-25-7-39-7-14 0-27 2-38 7-12 5-22 12-29 21-9 9-14 19-18 31-5 12-7 25-7 38 0 14 2 27 7 39z m37-62c1-7 5-14 9-20 4-6 9-11 15-14 7-3 14-6 24-6 9 0 18 2 24 6 7 3 12 8 16 14 4 6 7 13 9 20 2 7 3 15 3 23 0 8-1 17-3 24-2 8-5 15-9 21-4 6-9 11-16 15-6 3-14 5-24 5-9 0-17-1-24-5-6-4-11-9-15-15-4-6-7-13-9-21-2-7-3-16-3-24 0-8 1-16 3-23z m210 118l0-153 92 0 0-35-133 0 0 188z"/>
<glyph unicode="&#110;" d="M218 243c32-35 67-70 99-109-35-38-83-57-141-48-54 10-106 55-118 112-13 58 3 109 51 151 32-35 61-67 93-103 16 10 19 16 12 29-3 16 4 29 16 39 13 6 29 3 42-7 13-13 13-25 6-38-9-13-22-23-35-16-13 3-19-3-25-10z m-132-121c16-10 29-20 42-26 19-6 29-19 35-38 7-16 16-32 23-52-48 0-96 0-148 0 16 42 32 80 48 116z m151 380c118 0 233-112 237-233-10 0-20 3-26 3-6 26-10 48-19 70-32 77-90 119-170 132-22 3-22 3-22 28z m-3-67c89 3 176-83 169-169-6 0-16 3-25 3 0 9-4 19-4 29-9 57-57 102-115 108-19 4-25 10-25 29z m102-166c-16 0-22 3-26 22-6 26-25 42-51 48-19 7-19 7-22 29 51 6 99-42 99-99z"/>
<glyph unicode="&#111;" d="M36 318l52-83 0 83 25 0 0-124-27 0-51 83 0-83-26 0 0 124z m122-93c1-3 3-5 6-7 2-2 5-3 9-4 3-1 6-2 10-2 3 0 5 0 8 1 2 0 5 1 7 3 3 0 4 2 6 4 2 2 2 5 2 8 0 3 0 6-3 8-2 3-5 4-8 5-3 2-8 3-12 3-4 1-9 3-13 4-5 1-9 2-13 4-4 2-8 4-12 6-3 3-6 6-8 10-2 5-3 9-3 15 0 7 1 12 4 17 2 5 7 8 11 11 4 4 9 6 15 7 5 2 10 2 16 2 7 0 12 0 19-2 6-2 12-4 16-7 5-4 8-8 10-13 3-5 5-11 5-18l-27 0c0 3-1 7-2 9-2 3-4 4-5 6-2 1-5 2-8 3-2 1-5 1-9 1-2 0-4 0-6-1-3-1-5-2-6-2-2-1-3-3-4-4-1-2-2-5-2-7 0-3 1-4 2-6 1-2 2-2 5-4 3-2 7-2 12-4 5-2 11-3 19-5 2-1 6-2 10-3 4 0 8-3 12-5 4-3 8-7 11-11 3-4 4-10 4-17 0-6-1-11-3-16-3-5-6-9-10-13-4-3-10-6-17-8-6-1-14-3-22-3-6 0-13 1-20 2-6 2-12 5-17 9-5 3-9 8-12 14-2 5-4 12-4 20l27 0c-3-4-2-8 0-10z m178 93l0-23-59 0 0-29 52 0 0-22-52 0 0-51-28 0 0 124 87 0z m107-124l-21 84-21-84-27 0-33 124 27 0 20-84 22 84 25 0 22-85 20 85 27 0-33-124z"/>
<glyph unicode="&#112;" d="M7 287c3 10 8 19 14 27 7 7 15 13 24 17 10 4 20 7 33 7 12 0 23-3 32-7 9-4 17-10 24-17 6-8 11-16 15-27 3-10 5-20 5-32 0-11-2-22-5-31-4-10-9-18-15-26-7-7-15-13-24-17-9-4-20-7-32-7-12 0-23 3-33 7-9 4-17 10-24 17-6 8-11 16-14 26-4 10-5 20-5 31 0 12 1 22 5 32z m31-51c2-6 4-11 7-16 4-5 8-9 14-12 5-2 11-4 19-4 8 0 14 2 20 4 6 3 10 7 13 12 4 5 6 10 8 16 2 6 2 13 2 19 0 7 0 13-2 20-2 7-4 12-8 17-3 5-7 9-13 12-6 2-11 4-20 4-7 0-14-2-19-4-6-3-10-7-14-12-3-5-5-10-7-17-2-7-2-13-2-20 0-6 0-13 2-19z m187 98l37-107 1 0 34 107 48 0 0-156-32 0 0 110-1 0-38-110-26 0-38 109-1 0 0-109-32 0 0 156z m242-155c-7-3-14-5-22-5-11 0-22 3-32 7-10 4-17 10-24 17-7 8-12 16-15 26-3 10-5 20-5 31 0 12 2 22 5 32 3 10 8 19 15 27 7 7 15 13 24 17 10 4 20 7 32 7 8 0 16-1 23-4 8-2 14-5 21-10 6-5 11-11 15-18 4-6 6-14 7-23l-33 0c-2 9-6 15-11 20-6 4-14 7-22 7-7 0-14-2-20-4-5-3-10-7-13-12-3-5-6-11-7-17-2-7-3-14-3-20 0-7 1-13 3-19 1-6 4-12 7-17 3-5 8-9 13-11 6-3 12-4 20-4 12 0 20 2 27 8 5 6 9 14 10 25l-34 0 0 25 65 0 0-84-22 0-4 16c-6-8-12-13-20-17z"/>
<glyph unicode="&#113;" d="M227 13c-16 3-32 9-48 13-3 0-9 6-9 9 0 51 0 106 0 157 22 0 41 0 60 0 0-61 0-122 0-182 0 3 0 3-3 3z m58 182c22 0 41 0 61 0 0-6 0-13 0-22 0-45 0-87 0-131 0-10-4-13-10-16-16-4-32-10-51-13 0 64 0 121 0 182z m-256 0c32 0 61 0 93 0 0-45 0-86 0-134-48 35-77 77-93 134z m368 0c29 0 57 0 89 0-16-54-44-96-89-134 0 45 0 89 0 134z m-256 16l-26 83 16 0 13-38c3-10 6-19 10-32 0 13 3 22 6 32l13 38 16 0-29-83z m131 42c0-29-16-45-42-45-22 3-38 19-38 45 0 25 16 45 38 45 26 0 42-20 42-45z m-64 0c0-16 10-32 22-32 16 0 23 13 23 32 0 16-7 32-23 32-12 0-22-16-22-32z m90 29l-23 0 0 12 64 0 0-12-25 0 0-71-16 0z m96-32l-32 0 0-26 35 0 0-13-51 0 0 83 48 0 0-12-32 0 0-23 32 0z m-141 249c-135 0-218-112-227-192 153 0 304 0 457 0-13 90-99 192-230 192z m38-153l-35 19-35-19 6 38-29 29 42 6 16 39 19-39 42-6-32-29z"/>
<glyph unicode="&#114;" d="M183 301c0 0 5 8 6 22 2 22 0 44 0 67 0 15 3 32-12 44-16 13-4 42 15 48 4 0 7 0 10 0 38 0 77 0 116 0 16 0 29-6 32-22 7-16-3-26-12-36-4-3-7-9-7-15 0-29 0-61 0-90 0-7 3-16 7-19 48-70 96-138 143-208 7-10 13-19 16-29 9-18 1-39-41-38-135 1-266 0-400 0-16 0-39 4-41 22-4 20 168 254 168 254z m28 141c0-26 0-70 0-70 0 0 0-38-3-65-3-19-19-38-35-58-42-57-81-112-122-169-3-7-12-16-6-25 6-7 27-7 27-7 0 0 260-1 383 2 21 0 18 14 11 28-39 54-78 107-116 161-12 19-39 45-39 64-2 32-4 66-4 66 0 0-1 47-1 66 3 0 26-1 26 15 0 3-7 10-12 10-38 0-81 0-119 0-3 0-13 0-13-10 0-8 17-8 23-8z m43-372c-52 0-105 0-154 0-6 0-16 0-18 3 0 7 3 13 6 16 24 36 49 70 74 109 3 7 9 10 18 7 50-10 99-10 148 3 9 3 16 0 21-7 25-35 50-73 75-109 3-6 15-19-13-19-52-3-104-3-157-3z"/>
<glyph unicode="&#115;" d="M170 45c-36 0-74 9-109 35-55 38-71 106-42 176 26 77 83 128 154 170 61 32 128 51 198 41 109-16 163-102 125-205-32-83-93-140-170-179-51-29-102-38-156-38z m25 29c103 16 183 60 243 140 4 4 4 13 0 16-38 68-73 132-112 196-3 3-9 9-16 9-99-13-176-57-236-137-4-4-4-16 0-20 35-64 73-131 112-195 0-3 6-6 9-9z m183 358c16-29 32-54 44-80 16-26 29-51 45-77 29 71-9 144-89 157z m-247-352c-29 51-57 102-89 157-26-74 12-147 89-157z m192 198c-6-3-9-6-13-9 4-10 10-16 13-26-22-13-16 16-25 19-7-3-10-6-13-6-3-13 19-22 0-35-7 9-10 16-16 25-3-3-10-6-13-6-3-13 19-22 0-35-3 9-10 16-13 25-6-3-9-3-13-6-6-13 20-22 0-35-3 9-9 16-16 25-3-3-6-3-12-6 3-10 9-16 12-26-3-3-6-3-9-6-7 6-10 16-16 22-10-3-16-9-26-12-3 3-6 6-9 9 9 7 16 10 22 16 6 13-19 23 0 35 6-9 10-16 16-25 6 3 10 6 16 9-6 10-10 16-16 26 3 3 6 3 10 6 6-9 9-16 16-25 6 3 12 3 16 6-4 10-10 19-13 29 19 10 16-16 29-16 3 0 6 0 9 3 3 13-19 23-3 35 6-9 10-19 16-25 3 3 10 3 10 6 6 13-20 23 0 35 6-9 9-16 16-25 6 0 12 3 16 6 3 13-20 23 0 35 6-9 9-16 16-25 9 3 16 9 25 13 10-10 10-10-16-29-3-10 19-19 0-32-6 9-9 16-16 25z"/>
<glyph unicode="&#116;" d="M502 182c-9-70-73-112-144-89-32 9-60 25-83 48-16 16-19 16-35 0-38-39-83-58-134-51-52 6-87 41-93 92 0 0 3 0 3 0 42-32 61-32 102 0 61 48 132 61 205 42 32-10 61-32 90-48 32-19 54-19 83 0-3 0 3 3 6 6z m-259 128c-13-57-54-89-115-83-45 3-83 48-86 96 0 48 35 93 83 99 57 10 99-19 118-83 23-3 23-3 32 16 16 48 61 74 109 67 51-6 86-48 86-96 0-51-32-92-80-102-51-10-102 19-115 67-6 26-16 26-32 19z m-176 16c0-41 35-76 74-76 41 0 77 35 77 76 0 42-32 74-74 74-42 0-77-32-77-74z m227 0c-3-38 32-76 74-76 42 0 77 35 77 76 0 42-35 74-74 74-41 0-77-29-77-74z"/>
<glyph unicode="&#117;" d="M426 256c0-67 0-134 0-202 0-35-16-51-48-51-80 0-157 0-237 0-32 0-48 16-48 48 0 135 0 269 0 407 0 35 16 48 48 48 80 0 160 0 240 0 32 0 48-16 48-48-3-68-3-135-3-202z m-45 208c-83 0-170 0-253 0 0-77 0-154 0-230 83 0 166 0 253 0 0 80 0 153 0 230z m-51-346c0 42-36 74-74 74-42 0-74-32-74-74 0-41 32-73 74-73 42 0 74 35 74 73z m-74-38c-22 0-42 19-42 42 0 22 16 38 42 38 22 0 42-19 42-42 0-22-20-38-42-38z"/>
<glyph unicode="&#118;" d="M502 243c0 3 0 7 0 13 0 6 0 6 0 13 0 3 0 3 0 6 0 0 0 3 0 3-12 125-118 224-246 224-138 0-246-108-246-246 0-138 112-246 246-246 128 0 234 99 246 227 0 3 0 3 0 6z m-41 13c0-112-93-205-205-205-112 0-202 90-205 205 0 112 90 205 205 205 115 0 205-93 205-205z m-304-122c67 0 134 0 201 0 0 13 0 26 0 39-67 0-134 0-201 0 0-13 0-26 0-39z m35 128c6 7 10 13 19 20-13 9-25 19-38 32 13 9 22 19 35 28-6 4-13 10-19 16-10-12-19-22-29-38-13 16-22 26-29 35-6-3-13-6-19-13 13-9 22-19 35-28-13-16-22-26-32-36 7-6 10-9 16-16 10 10 19 23 32 36 10-13 19-23 29-36z m202 96c-10-12-20-22-29-38-10 13-19 22-26 32-6-6-13-10-22-16 13-10 22-19 38-32-13-10-22-19-35-29 6-6 10-9 19-16 10 13 19 23 29 35 10-12 19-22 29-35 6 7 13 13 22 19-13 10-22 20-35 29 13 10 22 19 32 29-10 10-16 16-22 22z"/>
<glyph unicode="&#119;" d="M502 243c0 3 0 7 0 13 0 6 0 6 0 13 0 3 0 6 0 6 0 0 0 3 0 3-9 119-105 215-227 224-6 0-13 0-19 0-138 0-246-108-246-246 0-131 99-237 227-246 0 0 3 0 3 0 6 0 10 0 16 0 6 0 10 0 16 0 0 0 3 0 3 0 119 9 215 105 224 224 3 6 3 6 3 9z m-409 74c0-10 0-19 0-32 3-29 13-42 45-48 22-3 48-7 70 9 13 10 22 23 32 39 6 9 10 19 26 13 0-4 3-10 3-13 6-26 22-42 48-45 16-3 32-3 48-3 32 3 48 22 48 54 0 10 0 16 0 26 13 0 22 0 35 0 29-64 3-163-58-215-67-60-166-70-243-19-80 51-112 141-86 237 9-3 22-3 32-3z m-13 41c16 42 90 103 170 103 76 3 163-45 182-103-118-22-234-22-352 0z m246-227c-48 0-96 0-140 0 0-6 0-13 0-19 48 0 92 0 140 0 0 6 0 13 0 19z"/>
<glyph unicode="&#120;" d="M214 294c13-3 16-9 16-22 4-42 10-83 13-125 0-13 3-25 3-38l4-19c3-16 3-32 6-52 0 0 0 0 3 0 7 77 16 157 23 234 0 13 6 19 19 22 54 23 80 77 64 135-16 54-71 86-125 77-51-10-86-48-93-100-6-44 23-92 67-112z m13 164c16 0 32-13 32-29 0-16-13-32-32-32-16 0-32 13-32 29 0 16 13 32 32 32z m45-356l0-16c58-3 96-19 96-32 0-12-45-32-112-32-67 0-112 20-112 32 0 13 38 29 99 32l-3 16c-58-3-112-19-112-48 0-32 64-48 128-48 64 0 128 16 128 48 0 29-54 45-112 48z"/>
<glyph unicode="&#121;" d="M48 179c-16 48-41 150-41 150l42 0c0 0 15-70 24-105 7 38 16 70 23 105l34 0c0 0 24-78 29-92 7 32 16 64 23 96 13 0 25 0 41 0-12-51-26-99-41-150-16 0-29 0-45 0-10 32-26 95-26 95l-21-99c1 0-32 0-42 0z m387 122c0 0 0-19 0-29 22 0 45 0 67 0 0-10 0-19 0-29-22 0-45 0-67 0 0-23 0-42 0-65-12 0-25 0-38 0 0 48 0 99 0 151 36 0 74 0 109 0 0-10 0-28 0-28z m-147 0c-15 0-32 0-48 0 0 10 0 19 0 28 45 0 87 0 132 0 0-9 0-15 0-28-13 0-29 0-45 0 0-42 0-81 0-122-12 0-26 0-39 0 0 38 0 80 0 122z"/>
</font>
</defs>
</svg>
